<svg width="33" height="33" viewBox="0 0 33 33" fill="none" xmlns="http://www.w3.org/2000/svg">
<path d="M26.7645 13.206L16.6762 23.2943C16.5343 23.436 16.342 23.5156 16.1415 23.5156C15.941 23.5156 15.7487 23.436 15.6068 23.2943L5.5185 13.206C5.38485 13.0626 5.31209 12.8729 5.31555 12.6769C5.31901 12.4809 5.39841 12.2938 5.53704 12.1552C5.67567 12.0166 5.86269 11.9372 6.05871 11.9337C6.25472 11.9303 6.44443 12.003 6.58786 12.1367L16.1415 21.689L25.6951 12.1367C25.8386 12.003 26.0283 11.9303 26.2243 11.9337C26.4203 11.9372 26.6073 12.0166 26.746 12.1552C26.8846 12.2938 26.964 12.4809 26.9674 12.6769C26.9709 12.8729 26.8981 13.0626 26.7645 13.206Z" fill="#F0F4FF"/>
</svg>
