<svg width="33" height="34" viewBox="0 0 33 34" fill="none" xmlns="http://www.w3.org/2000/svg">
<path d="M26.7645 21.5596C26.6226 21.7013 26.4303 21.7809 26.2298 21.7809C26.0293 21.7809 25.837 21.7013 25.6951 21.5596L16.1415 12.0072L6.58786 21.5596C6.44443 21.6933 6.25472 21.766 6.05871 21.7626C5.86269 21.7591 5.67567 21.6797 5.53704 21.5411C5.39841 21.4025 5.31901 21.2154 5.31555 21.0194C5.31209 20.8234 5.38485 20.6337 5.5185 20.4903L15.6068 10.4019C15.7487 10.2603 15.941 10.1807 16.1415 10.1807C16.342 10.1807 16.5343 10.2603 16.6762 10.4019L26.7645 20.4903C26.9062 20.6321 26.9858 20.8244 26.9858 21.0249C26.9858 21.2254 26.9062 21.4178 26.7645 21.5596Z" fill="#F0F4FF"/>
</svg>
