<svg width="26" height="25" viewBox="0 0 26 25" fill="none" xmlns="http://www.w3.org/2000/svg">
<path d="M21.4421 2.72168H4.3344C4.02504 2.72168 3.72836 2.84457 3.50961 3.06332C3.29086 3.28207 3.16797 3.57875 3.16797 3.88811V20.9958C3.16797 21.3051 3.29086 21.6018 3.50961 21.8206C3.72836 22.0393 4.02504 22.1622 4.3344 22.1622H21.4421C21.7514 22.1622 22.0481 22.0393 22.2669 21.8206C22.4856 21.6018 22.6085 21.3051 22.6085 20.9958V3.88811C22.6085 3.57875 22.4856 3.28207 22.2669 3.06332C22.0481 2.84457 21.7514 2.72168 21.4421 2.72168ZM21.8309 20.9958C21.8309 21.0989 21.7899 21.1978 21.717 21.2707C21.6441 21.3436 21.5452 21.3846 21.4421 21.3846H4.3344C4.23128 21.3846 4.13239 21.3436 4.05947 21.2707C3.98655 21.1978 3.94559 21.0989 3.94559 20.9958V3.88811C3.94559 3.78499 3.98655 3.6861 4.05947 3.61318C4.13239 3.54026 4.23128 3.4993 4.3344 3.4993H21.4421C21.5452 3.4993 21.6441 3.54026 21.717 3.61318C21.7899 3.6861 21.8309 3.78499 21.8309 3.88811V20.9958ZM9.38894 10.8867V17.1077C9.38894 17.2108 9.34797 17.3097 9.27506 17.3826C9.20214 17.4555 9.10325 17.4965 9.00013 17.4965C8.89701 17.4965 8.79811 17.4555 8.7252 17.3826C8.65228 17.3097 8.61132 17.2108 8.61132 17.1077V10.8867C8.61132 10.7836 8.65228 10.6847 8.7252 10.6118C8.79811 10.5389 8.89701 10.4979 9.00013 10.4979C9.10325 10.4979 9.20214 10.5389 9.27506 10.6118C9.34797 10.6847 9.38894 10.7836 9.38894 10.8867ZM17.9428 13.6084V17.1077C17.9428 17.2108 17.9018 17.3097 17.8289 17.3826C17.756 17.4555 17.6571 17.4965 17.554 17.4965C17.4508 17.4965 17.3519 17.4555 17.279 17.3826C17.2061 17.3097 17.1651 17.2108 17.1651 17.1077V13.6084C17.1651 12.9897 16.9194 12.3963 16.4819 11.9588C16.0444 11.5213 15.451 11.2755 14.8323 11.2755C14.2136 11.2755 13.6202 11.5213 13.1827 11.9588C12.7452 12.3963 12.4994 12.9897 12.4994 13.6084V17.1077C12.4994 17.2108 12.4585 17.3097 12.3855 17.3826C12.3126 17.4555 12.2137 17.4965 12.1106 17.4965C12.0075 17.4965 11.9086 17.4555 11.8357 17.3826C11.7628 17.3097 11.7218 17.2108 11.7218 17.1077V10.8867C11.7218 10.7836 11.7628 10.6847 11.8357 10.6118C11.9086 10.5389 12.0075 10.4979 12.1106 10.4979C12.2137 10.4979 12.3126 10.5389 12.3855 10.6118C12.4585 10.6847 12.4994 10.7836 12.4994 10.8867V11.5545C12.9171 11.0809 13.4691 10.7456 14.082 10.5932C14.6948 10.4409 15.3395 10.4787 15.9304 10.7017C16.5212 10.9246 17.0302 11.3221 17.3897 11.8413C17.7491 12.3605 17.9421 12.9769 17.9428 13.6084ZM9.77775 8.16503C9.77775 8.31883 9.73214 8.46917 9.64669 8.59705C9.56125 8.72493 9.4398 8.8246 9.29771 8.88346C9.15562 8.94231 8.99926 8.95771 8.84842 8.92771C8.69758 8.8977 8.55902 8.82364 8.45027 8.71489C8.34151 8.60614 8.26745 8.46758 8.23745 8.31673C8.20744 8.16589 8.22284 8.00954 8.2817 7.86744C8.34055 7.72535 8.44022 7.6039 8.5681 7.51846C8.69598 7.43301 8.84633 7.38741 9.00013 7.38741C9.20636 7.38741 9.40416 7.46933 9.54999 7.61517C9.69582 7.761 9.77775 7.95879 9.77775 8.16503Z" fill="#C7CFE5"/>
</svg>
