<svg width="18" height="19" viewBox="0 0 18 19" fill="none" xmlns="http://www.w3.org/2000/svg">
<path d="M14.625 6.6875H3.375C3.06434 6.6875 2.8125 6.93934 2.8125 7.25V15.125C2.8125 15.4357 3.06434 15.6875 3.375 15.6875H14.625C14.9357 15.6875 15.1875 15.4357 15.1875 15.125V7.25C15.1875 6.93934 14.9357 6.6875 14.625 6.6875Z" stroke="#8A9BB5" stroke-linecap="round" stroke-linejoin="round"/>
<path d="M9.5 11.1875C9.5 11.4636 9.27614 11.6875 9 11.6875C8.72386 11.6875 8.5 11.4636 8.5 11.1875C8.5 10.9114 8.72386 10.6875 9 10.6875C9.27614 10.6875 9.5 10.9114 9.5 11.1875Z" fill="#8A9BB5" stroke="#8A9BB5" stroke-width="0.125"/>
<path d="M6.1875 6.6875V4.4375C6.1875 3.69158 6.48382 2.97621 7.01126 2.44876C7.53871 1.92132 8.25408 1.625 9 1.625C10.3605 1.625 11.5516 2.59109 11.8125 3.875" stroke="#8A9BB5" stroke-linecap="round" stroke-linejoin="round"/>
</svg>
