<svg width="16" height="16" viewBox="0 0 16 16" fill="none" xmlns="http://www.w3.org/2000/svg">
<path d="M8 10C9.38071 10 10.5 8.88071 10.5 7.5C10.5 6.11929 9.38071 5 8 5C6.61929 5 5.5 6.11929 5.5 7.5C5.5 8.88071 6.61929 10 8 10Z" stroke="#F0F4FF" stroke-linecap="round" stroke-linejoin="round"/>
<path d="M6.5 2.18763C7.4837 1.93225 8.5163 1.93225 9.5 2.18763" stroke="#F0F4FF" stroke-linecap="round" stroke-linejoin="round"/>
<path d="M2.21826 6.39438C2.48911 5.41502 3.0054 4.52098 3.71826 3.79688" stroke="#F0F4FF" stroke-linecap="round" stroke-linejoin="round"/>
<path d="M9.5 13.8125C8.5163 14.0679 7.4837 14.0679 6.5 13.8125" stroke="#F0F4FF" stroke-linecap="round" stroke-linejoin="round"/>
<path d="M12.2817 3.79492C12.9948 4.51938 13.5111 5.41387 13.7817 6.39367" stroke="#F0F4FF" stroke-linecap="round" stroke-linejoin="round"/>
<path d="M13.7823 9.60547C13.476 10.706 12.862 11.6963 12.0123 12.4598C11.6361 11.7189 11.0621 11.0965 10.3538 10.6618C9.64558 10.2271 8.8308 9.99696 7.99979 9.99696C7.16877 9.99696 6.35399 10.2271 5.64575 10.6618C4.93751 11.0965 4.36348 11.7189 3.98729 12.4598C3.13759 11.6963 2.52353 10.706 2.21729 9.60547" stroke="#F0F4FF" stroke-linecap="round" stroke-linejoin="round"/>
</svg>
