<svg width="24" height="24" viewBox="0 0 24 24" fill="none" xmlns="http://www.w3.org/2000/svg">
<path d="M11.8125 12.75C11.8125 12.8992 11.7532 13.0423 11.6477 13.1477C11.5423 13.2532 11.3992 13.3125 11.25 13.3125H6.75C6.60082 13.3125 6.45774 13.2532 6.35225 13.1477C6.24676 13.0423 6.1875 12.8992 6.1875 12.75C6.1875 12.6008 6.24676 12.4577 6.35225 12.3523C6.45774 12.2468 6.60082 12.1875 6.75 12.1875H11.25C11.3992 12.1875 11.5423 12.2468 11.6477 12.3523C11.7532 12.4577 11.8125 12.6008 11.8125 12.75ZM11.25 9.1875H6.75C6.60082 9.1875 6.45774 9.24676 6.35225 9.35225C6.24676 9.45774 6.1875 9.60082 6.1875 9.75C6.1875 9.89918 6.24676 10.0423 6.35225 10.1477C6.45774 10.2532 6.60082 10.3125 6.75 10.3125H11.25C11.3992 10.3125 11.5423 10.2532 11.6477 10.1477C11.7532 10.0423 11.8125 9.89918 11.8125 9.75C11.8125 9.60082 11.7532 9.45774 11.6477 9.35225C11.5423 9.24676 11.3992 9.1875 11.25 9.1875ZM21.5625 15.0581V21C21.5627 21.0989 21.5369 21.196 21.4876 21.2817C21.4384 21.3674 21.3674 21.4386 21.2818 21.4881C21.1963 21.5376 21.0992 21.5637 21.0003 21.5638C20.9015 21.5639 20.8044 21.5379 20.7188 21.4884L18.375 20.1478L16.0312 21.4884C15.9456 21.5379 15.8485 21.5639 15.7497 21.5638C15.6508 21.5637 15.5537 21.5376 15.4682 21.4881C15.3826 21.4386 15.3116 21.3674 15.2624 21.2817C15.2131 21.196 15.1873 21.0989 15.1875 21V18.5625H3.75C3.4019 18.5625 3.06806 18.4242 2.82192 18.1781C2.57578 17.9319 2.4375 17.5981 2.4375 17.25V5.25C2.4375 4.9019 2.57578 4.56806 2.82192 4.32192C3.06806 4.07578 3.4019 3.9375 3.75 3.9375H20.25C20.5981 3.9375 20.9319 4.07578 21.1781 4.32192C21.4242 4.56806 21.5625 4.9019 21.5625 5.25V8.19187C22.0355 8.62992 22.4129 9.16099 22.671 9.75177C22.9291 10.3426 23.0624 10.9803 23.0624 11.625C23.0624 12.2697 22.9291 12.9074 22.671 13.4982C22.4129 14.089 22.0355 14.6201 21.5625 15.0581ZM18.375 8.0625C17.6704 8.0625 16.9816 8.27144 16.3958 8.66289C15.8099 9.05434 15.3533 9.61073 15.0837 10.2617C14.814 10.9127 14.7435 11.629 14.881 12.32C15.0184 13.0111 15.3577 13.6458 15.8559 14.1441C16.3542 14.6423 16.9889 14.9816 17.68 15.119C18.371 15.2565 19.0873 15.186 19.7383 14.9163C20.3893 14.6467 20.9457 14.1901 21.3371 13.6042C21.7286 13.0184 21.9375 12.3296 21.9375 11.625C21.9375 10.6802 21.5622 9.77403 20.8941 9.10593C20.226 8.43783 19.3198 8.0625 18.375 8.0625ZM15.1875 17.4375V15.0581C14.3667 14.2921 13.8481 13.257 13.726 12.141C13.6039 11.0249 13.8864 9.90213 14.5222 8.97678C15.1579 8.05143 16.1047 7.385 17.1902 7.09867C18.2758 6.81234 19.4281 6.92514 20.4375 7.41656V5.25C20.4375 5.20027 20.4177 5.15258 20.3826 5.11742C20.3474 5.08225 20.2997 5.0625 20.25 5.0625H3.75C3.70027 5.0625 3.65258 5.08225 3.61742 5.11742C3.58225 5.15258 3.5625 5.20027 3.5625 5.25V17.25C3.5625 17.2997 3.58225 17.3474 3.61742 17.3826C3.65258 17.4177 3.70027 17.4375 3.75 17.4375H15.1875ZM20.4375 15.8334C19.7956 16.1486 19.0901 16.3125 18.375 16.3125C17.6599 16.3125 16.9544 16.1486 16.3125 15.8334V20.0306L18.0938 19.0116C18.1793 18.9622 18.2763 18.9362 18.375 18.9362C18.4737 18.9362 18.5707 18.9622 18.6562 19.0116L20.4375 20.0306V15.8334Z" fill="#8A9BB5"/>
</svg>
