<svg width="16" height="16" viewBox="0 0 16 16" fill="none" xmlns="http://www.w3.org/2000/svg">
<path d="M2.5 7H13.5V12.5C13.5 12.6326 13.4473 12.7598 13.3536 12.8536C13.2598 12.9473 13.1326 13 13 13H3C2.86739 13 2.74021 12.9473 2.64645 12.8536C2.55268 12.7598 2.5 12.6326 2.5 12.5V7Z" stroke="#F0F4FF" stroke-linecap="round" stroke-linejoin="round"/>
<path d="M2.52704 6.9995L13.0002 4.23512L12.4902 2.36012C12.455 2.23496 12.3718 2.12872 12.2588 2.06448C12.1458 2.00024 12.012 1.98318 11.8864 2.017L2.36579 4.52887C2.30357 4.54472 2.24512 4.57276 2.19382 4.61137C2.14252 4.64999 2.0994 4.6984 2.06695 4.75381C2.03451 4.80922 2.01339 4.87051 2.00483 4.93415C1.99626 4.99778 2.00041 5.06248 2.01704 5.1245L2.52704 6.9995Z" stroke="#F0F4FF" stroke-linecap="round" stroke-linejoin="round"/>
<path d="M4.23193 4.03711L7.21881 5.76211" stroke="#F0F4FF" stroke-linecap="round" stroke-linejoin="round"/>
<path d="M7.91309 3.06641L10.9 4.79078" stroke="#F0F4FF" stroke-linecap="round" stroke-linejoin="round"/>
</svg>
