<svg width="26" height="25" viewBox="0 0 26 25" fill="none" xmlns="http://www.w3.org/2000/svg">
<path d="M18.7339 14.4268L15.6235 12.8716C15.5622 12.8411 15.4941 12.8273 15.4258 12.8315C15.3575 12.8358 15.2916 12.858 15.2346 12.8959L13.6172 13.9748C12.7281 13.5484 12.0111 12.8314 11.5847 11.9423L12.6636 10.3249C12.7015 10.2679 12.7237 10.202 12.728 10.1337C12.7323 10.0655 12.7184 9.99728 12.6879 9.93606L11.1327 6.82557C11.1004 6.76065 11.0507 6.70604 10.989 6.6679C10.9273 6.62977 10.8562 6.60964 10.7837 6.60978C9.85567 6.60978 8.96561 6.97846 8.30936 7.6347C7.65312 8.29095 7.28444 9.18101 7.28444 10.1091C7.28676 12.2739 8.14774 14.3493 9.67848 15.8801C11.2092 17.4108 13.2847 18.2718 15.4495 18.2741C16.3775 18.2741 17.2676 17.9054 17.9238 17.2492C18.5801 16.5929 18.9488 15.7029 18.9488 14.7748C18.9488 14.7026 18.9287 14.6318 18.8908 14.5703C18.8529 14.5088 18.7985 14.4591 18.7339 14.4268ZM15.4495 17.4965C13.4908 17.4944 11.613 16.7154 10.2281 15.3305C8.8431 13.9455 8.06412 12.0677 8.06206 10.1091C8.06195 9.42789 8.31728 8.77142 8.77762 8.26932C9.23797 7.76722 9.86986 7.456 10.5485 7.39713L11.8899 10.0809L10.8207 11.6886C10.785 11.7417 10.763 11.8027 10.7566 11.8663C10.7501 11.9298 10.7595 11.994 10.7837 12.0531C11.3003 13.2812 12.2773 14.2582 13.5054 14.7748C13.5646 14.7994 13.6289 14.809 13.6927 14.8027C13.7564 14.7964 13.8177 14.7745 13.8709 14.7388L15.4786 13.6696L18.1624 15.011C18.1033 15.6896 17.7918 16.3214 17.2895 16.7816C16.7873 17.2418 16.1307 17.4969 15.4495 17.4965ZM13.1166 2.72168C11.4244 2.72137 9.76141 3.16283 8.29216 4.00241C6.82291 4.84199 5.59829 6.05059 4.73945 7.50867C3.88061 8.96674 3.4173 10.6238 3.39535 12.3158C3.3734 14.0079 3.79356 15.6764 4.61429 17.1563L3.45758 20.6254C3.38904 20.831 3.37909 21.0515 3.42885 21.2624C3.47861 21.4732 3.58611 21.666 3.73931 21.8192C3.8925 21.9724 4.08533 22.0799 4.29619 22.1297C4.50704 22.1795 4.72759 22.1695 4.93311 22.101L8.40227 20.9443C9.69998 21.6633 11.1451 22.0758 12.6268 22.15C14.1085 22.2243 15.5876 21.9584 16.9507 21.3727C18.3138 20.787 19.5248 19.897 20.4908 18.771C21.4568 17.645 22.1522 16.3128 22.5238 14.8765C22.8954 13.4402 22.9332 11.9379 22.6345 10.4847C22.3358 9.03145 21.7083 7.6659 20.8003 6.49264C19.8923 5.31939 18.7277 4.36955 17.3959 3.71591C16.064 3.06227 14.6002 2.72218 13.1166 2.72168ZM13.1166 21.3846C11.5443 21.3851 9.9997 20.971 8.63848 20.1841C8.57932 20.1501 8.51233 20.132 8.44407 20.1316C8.40208 20.1316 8.36037 20.1385 8.32062 20.1521L4.68719 21.3632C4.61868 21.386 4.54517 21.3894 4.47488 21.3728C4.4046 21.3562 4.34032 21.3204 4.28925 21.2693C4.23819 21.2182 4.20236 21.1539 4.18577 21.0837C4.16918 21.0134 4.1725 20.9399 4.19534 20.8714L5.40649 17.2379C5.42396 17.1857 5.43013 17.1303 5.4246 17.0755C5.41907 17.0208 5.40196 16.9678 5.37441 16.9201C4.38849 15.2159 3.99253 13.2339 4.24798 11.2817C4.50342 9.3295 5.39598 7.51615 6.78719 6.12299C8.1784 4.72982 9.99048 3.83471 11.9423 3.57653C13.8942 3.31834 15.8767 3.71151 17.5823 4.69503C19.2879 5.67856 20.6212 7.19746 21.3755 9.01612C22.1297 10.8348 22.2627 12.8515 21.7538 14.7534C21.2449 16.6554 20.1225 18.3362 18.5608 19.5352C16.9992 20.7342 15.0855 21.3842 13.1166 21.3846Z" fill="#C7CFE5"/>
</svg>
