<svg width="16" height="16" viewBox="0 0 16 16" fill="none" xmlns="http://www.w3.org/2000/svg">
<path d="M8.4375 11.25C8.4375 11.4916 8.24162 11.6875 8 11.6875C7.75838 11.6875 7.5625 11.4916 7.5625 11.25C7.5625 11.0084 7.75838 10.8125 8 10.8125C8.24162 10.8125 8.4375 11.0084 8.4375 11.25Z" fill="#343330" stroke="#3F4F66" stroke-width="0.125"/>
<path d="M8 9V8.5C9.10438 8.5 10 7.71625 10 6.75C10 5.78375 9.10438 5 8 5C6.89562 5 6 5.78375 6 6.75V7" stroke="#3F4F66" stroke-linecap="round" stroke-linejoin="round"/>
<path d="M8 14C11.3137 14 14 11.3137 14 8C14 4.68629 11.3137 2 8 2C4.68629 2 2 4.68629 2 8C2 11.3137 4.68629 14 8 14Z" stroke="#3F4F66" stroke-linecap="round" stroke-linejoin="round"/>
</svg>
