<svg width="16" height="16" viewBox="0 0 16 16" fill="none" xmlns="http://www.w3.org/2000/svg">
<path d="M4.5 8.5H7.5" stroke="#3F4F66" stroke-linecap="round" stroke-linejoin="round"/>
<path d="M4.5 6.5H7.5" stroke="#3F4F66" stroke-linecap="round" stroke-linejoin="round"/>
<path d="M12.25 10.5C13.7688 10.5 15 9.26878 15 7.75C15 6.23122 13.7688 5 12.25 5C10.7312 5 9.5 6.23122 9.5 7.75C9.5 9.26878 10.7312 10.5 12.25 10.5Z" stroke="#3F4F66" stroke-linecap="round" stroke-linejoin="round"/>
<path d="M10.5 12H2.5C2.36739 12 2.24021 11.9473 2.14645 11.8536C2.05268 11.7598 2 11.6326 2 11.5V3.5C2 3.36739 2.05268 3.24021 2.14645 3.14645C2.24021 3.05268 2.36739 3 2.5 3H13.5C13.6326 3 13.7598 3.05268 13.8536 3.14645C13.9473 3.24021 14 3.36739 14 3.5V5.62875" stroke="#3F4F66" stroke-linecap="round" stroke-linejoin="round"/>
<path d="M10.5 9.87109V13.9998L12.25 12.9998L14 13.9998V9.87109" stroke="#3F4F66" stroke-linecap="round" stroke-linejoin="round"/>
</svg>
