<svg width="33" height="33" viewBox="0 0 33 33" fill="none" xmlns="http://www.w3.org/2000/svg">
<path d="M26.7645 12.6406L16.6762 22.7289C16.5343 22.8706 16.342 22.9502 16.1415 22.9502C15.941 22.9502 15.7487 22.8706 15.6068 22.7289L5.5185 12.6406C5.38485 12.4972 5.31209 12.3075 5.31555 12.1114C5.31901 11.9154 5.39841 11.7284 5.53704 11.5898C5.67567 11.4511 5.86269 11.3717 6.05871 11.3683C6.25472 11.3648 6.44443 11.4376 6.58786 11.5712L16.1415 21.1236L25.6951 11.5712C25.8386 11.4376 26.0283 11.3648 26.2243 11.3683C26.4203 11.3717 26.6073 11.4511 26.746 11.5898C26.8846 11.7284 26.964 11.9154 26.9674 12.1114C26.9709 12.3075 26.8981 12.4972 26.7645 12.6406Z" fill="#2A3C54"/>
</svg>
