<svg width="33" height="33" viewBox="0 0 33 33" fill="none" xmlns="http://www.w3.org/2000/svg">
<path d="M26.7645 20.9942C26.6226 21.1359 26.4303 21.2155 26.2298 21.2155C26.0293 21.2155 25.837 21.1359 25.6951 20.9942L16.1415 11.4418L6.58786 20.9942C6.44443 21.1278 6.25472 21.2006 6.05871 21.1971C5.86269 21.1937 5.67567 21.1143 5.53704 20.9756C5.39841 20.837 5.31901 20.65 5.31555 20.454C5.31209 20.258 5.38485 20.0683 5.5185 19.9248L15.6068 9.83651C15.7487 9.69482 15.941 9.61523 16.1415 9.61523C16.342 9.61523 16.5343 9.69482 16.6762 9.83651L26.7645 19.9248C26.9062 20.0667 26.9858 20.259 26.9858 20.4595C26.9858 20.66 26.9062 20.8523 26.7645 20.9942Z" fill="#2A3C54"/>
</svg>
