<svg width="26" height="25" viewBox="0 0 26 25" fill="none" xmlns="http://www.w3.org/2000/svg">
<path d="M13.0015 2.72168C11.079 2.72168 9.19972 3.29176 7.60123 4.35984C6.00274 5.42792 4.75687 6.94601 4.02117 8.72216C3.28546 10.4983 3.09297 12.4527 3.46803 14.3383C3.84309 16.2238 4.76885 17.9558 6.12825 19.3152C7.48766 20.6746 9.21964 21.6004 11.1052 21.9754C12.9907 22.3505 14.9452 22.158 16.7213 21.4223C18.4974 20.6866 20.0155 19.4407 21.0836 17.8422C22.1517 16.2437 22.7218 14.3644 22.7218 12.4419C22.719 9.86484 21.6939 7.39409 19.8717 5.5718C18.0494 3.74951 15.5786 2.72451 13.0015 2.72168ZM13.3903 21.3758V14.386H16.112C16.2151 14.386 16.314 14.345 16.3869 14.2721C16.4598 14.1992 16.5008 14.1003 16.5008 13.9972C16.5008 13.8941 16.4598 13.7952 16.3869 13.7223C16.314 13.6493 16.2151 13.6084 16.112 13.6084H13.3903V10.8867C13.3903 10.3711 13.5951 9.87663 13.9597 9.51205C14.3243 9.14747 14.8188 8.94265 15.3344 8.94265H16.8896C16.9927 8.94265 17.0916 8.90168 17.1646 8.82877C17.2375 8.75585 17.2784 8.65696 17.2784 8.55384C17.2784 8.45072 17.2375 8.35182 17.1646 8.27891C17.0916 8.20599 16.9927 8.16503 16.8896 8.16503H15.3344C14.6125 8.16503 13.9203 8.45177 13.4099 8.96219C12.8995 9.4726 12.6127 10.1649 12.6127 10.8867V13.6084H9.89103C9.78791 13.6084 9.68902 13.6493 9.6161 13.7223C9.54319 13.7952 9.50222 13.8941 9.50222 13.9972C9.50222 14.1003 9.54319 14.1992 9.6161 14.2721C9.68902 14.345 9.78791 14.386 9.89103 14.386H12.6127V21.3758C10.2769 21.2742 8.07371 20.2618 6.47525 18.5555C4.87679 16.8492 4.01015 14.5847 4.06099 12.2472C4.11183 9.90969 5.0761 7.68505 6.74724 6.04987C8.41838 4.41468 10.6635 3.49901 13.0015 3.49901C15.3396 3.49901 17.5847 4.41468 19.2558 6.04987C20.9269 7.68505 21.8912 9.90969 21.942 12.2472C21.9929 14.5847 21.1262 16.8492 19.5278 18.5555C17.9293 20.2618 15.7262 21.2742 13.3903 21.3758Z" fill="#3F4F66"/>
</svg>
