<svg width="22" height="22" viewBox="0 0 22 22" fill="none" xmlns="http://www.w3.org/2000/svg">
<rect width="22" height="22" rx="11" fill="#F2F2F2"/>
<path d="M15.375 8.8125H6.625C6.38338 8.8125 6.1875 9.00838 6.1875 9.25V15.375C6.1875 15.6166 6.38338 15.8125 6.625 15.8125H15.375C15.6166 15.8125 15.8125 15.6166 15.8125 15.375V9.25C15.8125 9.00838 15.6166 8.8125 15.375 8.8125Z" stroke="#C34E9E" stroke-width="1.4" stroke-linecap="round" stroke-linejoin="round"/>
<path d="M11 12.8594C11.302 12.8594 11.5469 12.6145 11.5469 12.3125C11.5469 12.0105 11.302 11.7656 11 11.7656C10.698 11.7656 10.4531 12.0105 10.4531 12.3125C10.4531 12.6145 10.698 12.8594 11 12.8594Z" fill="#C34E9E"/>
<path d="M8.8125 8.8125V7.0625C8.8125 6.48234 9.04297 5.92594 9.4532 5.5157C9.86344 5.10547 10.4198 4.875 11 4.875C12.0582 4.875 12.9846 5.62641 13.1875 6.625" stroke="#C34E9E" stroke-width="1.4" stroke-linecap="round" stroke-linejoin="round"/>
</svg>
