<svg width="175" height="65" viewBox="0 0 175 65" fill="none" xmlns="http://www.w3.org/2000/svg">
<path d="M8.41802 22.3119C10.4486 24.2741 13.4938 25.8286 17.1475 25.8286C18.6913 25.8286 20.153 25.2971 20.153 24.2341C20.153 23.1711 19.0167 22.6396 16.3366 22.1481C11.8693 21.3302 5.0487 20.2672 5.0487 13.439C5.0487 8.81941 8.86513 4.60742 16.2956 4.60742C20.7218 4.60742 24.701 5.87424 27.7859 8.41046L23.4006 14.2569C21.046 12.4586 18.0007 11.5582 15.8485 11.5582C13.8179 11.5582 13.3721 12.2935 13.3721 12.9888C13.3721 14.0518 14.4687 14.4195 17.3512 14.911C21.8172 15.6876 28.4367 16.997 28.4367 23.2924C28.4367 29.5878 24.0104 32.778 16.7427 32.778C10.9764 32.778 7.03827 31.061 4.15576 28.4448L8.41931 22.3119H8.41802Z" fill="#2A3C54"/>
<path d="M38.2575 39.8118H30.9487V12.5403H38.2575V14.625C39.8409 12.7442 41.7498 12.0488 43.7791 12.0488C48.6511 12.0488 52.3869 15.6468 52.3869 22.3937C52.3869 29.1406 48.6511 32.7785 43.7791 32.7785C41.7485 32.7785 39.8819 32.0832 38.2575 30.2023V39.8105V39.8118ZM41.263 18.5506C40.329 18.5506 38.948 19.0408 38.2575 19.9V24.9286C38.907 25.7465 40.329 26.278 41.263 26.278C43.2115 26.278 44.9167 24.8873 44.9167 22.3937C44.9167 19.9 43.2115 18.5506 41.263 18.5506Z" fill="#2A3C54"/>
<path d="M64.445 12.0488C70.2113 12.0488 74.6362 16.2195 74.6362 23.1703V24.6835H61.3178C61.7239 25.9503 63.1446 27.1771 65.6223 27.1771C67.2865 27.1771 69.0736 26.5644 70.0486 25.7865L73.0528 30.3248C71.1042 32.0019 67.6119 32.7785 64.6884 32.7785C58.557 32.7785 53.7656 28.8942 53.7656 22.3937C53.7656 16.6698 58.1099 12.0488 64.4437 12.0488H64.445ZM61.2371 20.0213H67.6926C67.4889 19.1621 66.7997 17.6502 64.4437 17.6502C62.2107 17.6502 61.4805 19.1221 61.2358 20.0213H61.2371Z" fill="#2A3C54"/>
<path d="M88.48 32.287V30.4061C87.3833 31.7968 84.9876 32.7772 82.551 32.7772C79.6275 32.7772 75.811 30.7738 75.811 26.2767C75.811 21.3707 79.6275 20.1851 82.551 20.1851C85.1093 20.1851 87.423 21.003 88.48 22.3524V20.1038C88.48 18.7145 87.2206 17.6502 84.8249 17.6502C82.9981 17.6502 80.9278 18.3855 79.3841 19.5723L76.9077 15.034C79.5468 12.908 83.2005 12.0488 86.165 12.0488C91.0371 12.0488 95.7887 13.7659 95.7887 20.349V32.2883H88.48V32.287ZM88.48 25.8278C87.9931 25.1324 86.7338 24.7648 85.5962 24.7648C84.3778 24.7648 83.0378 25.1737 83.0378 26.4005C83.0378 27.6274 84.3778 27.995 85.5962 27.995C86.7325 27.995 87.9919 27.6274 88.48 26.932V25.8278Z" fill="#2A3C54"/>
<path d="M111.947 32.2871L108.576 25.9091L107.154 27.8313V32.2884H99.8457V5.01562H107.154V19.5712L111.661 12.5379H120.473L113.733 21.5333L120.92 32.2871H111.946H111.947Z" fill="#2A3C54"/>
<path d="M143.226 61.6283C142.501 61.6283 141.778 61.5032 141.058 61.2542C139.483 60.7072 138.364 59.6275 137.735 58.0446C135.642 52.7735 139.439 42.7976 144.383 32.5134C141.523 32.3986 139.351 31.0763 138.082 28.6704C138.018 28.5491 137.958 28.4265 137.899 28.3001C135.169 30.7164 132.156 32.3444 129.236 32.3444C126.739 32.3444 125.497 31.1382 124.896 30.1255C121.521 24.4532 129.354 9.3649 130.257 7.66205C130.556 7.10088 131.249 6.88931 131.806 7.1886C132.363 7.48918 132.573 8.1871 132.276 8.74826C129.098 14.7328 124.818 25.5072 126.86 28.9387C127.14 29.4096 127.691 30.0365 129.236 30.0365C131.838 30.0365 134.621 28.3466 137.139 25.9161C136.159 21.0178 137.798 14.4244 140.418 10.5285C141.938 8.2645 143.631 7.16667 145.312 7.34599C145.956 7.41565 148.045 7.89555 147.873 11.1503C147.664 15.0862 144.239 21.7699 139.675 26.5792C139.796 26.9353 139.94 27.272 140.105 27.5867C141.037 29.3541 142.57 30.2133 144.793 30.2133C144.862 30.2133 144.977 30.2171 145.134 30.2223C145.25 30.2262 145.371 30.23 145.495 30.2326C146.497 28.2034 147.529 26.1754 148.557 24.181C149.373 22.5943 150.08 21.2242 150.565 20.2167C156.075 8.78826 163.061 5.70377 167.224 7.67366C170.314 9.13657 172.102 13.5575 169.13 20.1367C164.362 30.6983 153.101 32.4334 146.909 32.5418C142.662 41.2766 137.97 52.42 139.863 57.1867C140.243 58.1452 140.861 58.7451 141.805 59.0728C143.008 59.4907 144.2 59.3798 145.445 58.7335C151.93 55.3691 156.594 39.7067 156.64 39.5493C156.82 38.9391 157.455 38.5908 158.063 38.7701C158.668 38.9507 159.014 39.5919 158.835 40.202C158.635 40.8845 153.845 56.9661 146.494 60.7821C145.41 61.3445 144.317 61.627 143.227 61.627L143.226 61.6283ZM164.659 9.42296C161.338 9.42296 156.512 13.1615 152.624 21.2255C152.126 22.2602 151.414 23.6431 150.588 25.244C149.856 26.6669 148.988 28.3504 148.065 30.1978C153.889 29.8985 163.083 27.957 167.044 19.1847C169.357 14.0645 168.251 10.7104 166.248 9.76224C165.772 9.53777 165.238 9.42296 164.659 9.42296ZM144.963 9.63581C144.223 9.63581 143.243 10.4421 142.315 11.8237C140.273 14.8631 138.902 19.7781 139.152 23.7618C142.743 19.5111 145.423 14.1252 145.587 11.0303C145.657 9.70547 145.228 9.65903 145.067 9.64226C145.032 9.63839 144.998 9.6371 144.963 9.6371V9.63581Z" fill="#C34E9E"/>
<path d="M159.959 44.5252C159.561 44.5252 159.176 44.3175 158.964 43.9447L157.336 41.0847L154.286 42.4367C153.709 42.6934 153.032 42.4289 152.777 41.8458C152.522 41.2627 152.784 40.5829 153.363 40.3262L157.357 38.5562C157.892 38.3201 158.52 38.5265 158.811 39.0387L160.95 42.7992C161.264 43.3513 161.074 44.0557 160.526 44.373C160.347 44.4762 160.151 44.5252 159.959 44.5252Z" fill="#C34E9E"/>
</svg>
