<svg width="24" height="24" viewBox="0 0 24 24" fill="none" xmlns="http://www.w3.org/2000/svg">
<path d="M6.5 11H17.5V16.5C17.5 16.6326 17.4473 16.7598 17.3536 16.8536C17.2598 16.9473 17.1326 17 17 17H7C6.86739 17 6.74021 16.9473 6.64645 16.8536C6.55268 16.7598 6.5 16.6326 6.5 16.5V11Z" stroke="#3F4F66" stroke-linecap="round" stroke-linejoin="round"/>
<path d="M6.52655 11L16.9997 8.23561L16.4897 6.36061C16.4545 6.23545 16.3714 6.12921 16.2583 6.06497C16.1453 6.00073 16.0115 5.98367 15.8859 6.01748L6.3653 8.52936C6.30308 8.54521 6.24463 8.57325 6.19333 8.61186C6.14203 8.65047 6.09891 8.69889 6.06647 8.7543C6.03402 8.8097 6.01291 8.871 6.00434 8.93464C5.99577 8.99827 5.99992 9.06297 6.01655 9.12498L6.52655 11Z" stroke="#3F4F66" stroke-linecap="round" stroke-linejoin="round"/>
<path d="M8.23047 8.03711L11.2173 9.76211" stroke="#3F4F66" stroke-linecap="round" stroke-linejoin="round"/>
<path d="M11.9141 7.06543L14.9009 8.7898" stroke="#3F4F66" stroke-linecap="round" stroke-linejoin="round"/>
</svg>
