<svg width="22" height="22" viewBox="0 0 22 22" fill="none" xmlns="http://www.w3.org/2000/svg">
<rect width="22" height="22" rx="11" fill="#C7CFE5"/>
<path d="M15.375 8.8125H6.625C6.38338 8.8125 6.1875 9.00838 6.1875 9.25V15.375C6.1875 15.6166 6.38338 15.8125 6.625 15.8125H15.375C15.6166 15.8125 15.8125 15.6166 15.8125 15.375V9.25C15.8125 9.00838 15.6166 8.8125 15.375 8.8125Z" stroke="#8A9BB5" stroke-width="0.933333" stroke-linecap="round" stroke-linejoin="round"/>
<path d="M11 12.75C11.2416 12.75 11.4375 12.5541 11.4375 12.3125C11.4375 12.0709 11.2416 11.875 11 11.875C10.7584 11.875 10.5625 12.0709 10.5625 12.3125C10.5625 12.5541 10.7584 12.75 11 12.75Z" fill="#8A9BB5"/>
<path d="M8.8125 8.8125V7.0625C8.8125 6.48234 9.04297 5.92594 9.4532 5.5157C9.86344 5.10547 10.4198 4.875 11 4.875C11.5802 4.875 12.1366 5.10547 12.5468 5.5157C12.957 5.92594 13.1875 6.48234 13.1875 7.0625V8.8125" stroke="#8A9BB5" stroke-width="0.933333" stroke-linecap="round" stroke-linejoin="round"/>
</svg>
